<svg width="163" height="74" viewBox="0 0 163 74" fill="none" xmlns="http://www.w3.org/2000/svg">
<g filter="url(#filter0_f_1038_579)">
<path d="M132.559 56V58H30.4409V56H132.559ZM144.937 44V30C144.937 23.3726 139.395 18 132.559 18H30.4409C23.6048 18 18.063 23.3726 18.063 30V44C18.063 50.6274 23.6048 56 30.4409 56V58C22.59 58 16.2027 51.9263 16.005 44.3613L16 44V30C16 22.3888 22.265 16.1965 30.0682 16.0049L30.4409 16H132.559L132.932 16.0049C140.735 16.1965 147 22.3888 147 30V44C147 51.732 140.535 58 132.559 58V56C139.395 56 144.937 50.6274 144.937 44Z" fill="#00DDDF"/>
</g>
<g filter="url(#filter1_f_1038_579)">
<path d="M132.559 56V58H30.4409V56H132.559ZM144.937 44V30C144.937 23.3726 139.395 18 132.559 18H30.4409C23.6048 18 18.063 23.3726 18.063 30V44C18.063 50.6274 23.6048 56 30.4409 56V58C22.59 58 16.2027 51.9263 16.005 44.3613L16 44V30C16 22.3888 22.265 16.1965 30.0682 16.0049L30.4409 16H132.559L132.932 16.0049C140.735 16.1965 147 22.3888 147 30V44C147 51.732 140.535 58 132.559 58V56C139.395 56 144.937 50.6274 144.937 44Z" fill="#00DDDF"/>
</g>
<g filter="url(#filter2_f_1038_579)">
<path d="M132.559 56V58H30.4409V56H132.559ZM144.937 44V30C144.937 23.3726 139.395 18 132.559 18H30.4409C23.6048 18 18.063 23.3726 18.063 30V44C18.063 50.6274 23.6048 56 30.4409 56V58C22.59 58 16.2027 51.9263 16.005 44.3613L16 44V30C16 22.3888 22.265 16.1965 30.0682 16.0049L30.4409 16H132.559L132.932 16.0049C140.735 16.1965 147 22.3888 147 30V44C147 51.732 140.535 58 132.559 58V56C139.395 56 144.937 50.6274 144.937 44Z" fill="#E7F8F6"/>
</g>
<path d="M132.559 56V58H30.4409V56H132.559ZM144.937 44V30C144.937 23.3726 139.395 18 132.559 18H30.4409C23.6048 18 18.063 23.3726 18.063 30V44C18.063 50.6274 23.6048 56 30.4409 56V58C22.59 58 16.2027 51.9263 16.005 44.3613L16 44V30C16 22.3888 22.265 16.1965 30.0682 16.0049L30.4409 16H132.559L132.932 16.0049C140.735 16.1965 147 22.3888 147 30V44C147 51.732 140.535 58 132.559 58V56C139.395 56 144.937 50.6274 144.937 44Z" fill="#E7F8F6"/>
<g filter="url(#filter3_f_1038_579)">
<path d="M100.345 42.8402H99.6246V43.5602H98.9046V44.2802H98.1846V45.0002H93.1446V44.2802H92.4246V43.5602H91.7046V42.8402H90.9846V29.1602H93.1446V42.1202H93.8646V42.8402H97.4646V42.1202H98.1846V29.1602H100.345V42.8402Z" fill="#07E8CD"/>
</g>
<g filter="url(#filter4_f_1038_579)">
<path d="M80.4201 45.0002H78.2601V43.5602H77.5401V42.1202H76.8201V40.6802H76.1001V39.2402H75.3801V37.8002H73.9401V38.5202H73.2201V45.0002H71.0601V29.1602H73.2201V35.6402H73.9401V34.9202H74.6601V34.2002H75.3801V33.4802H76.1001V32.7602H76.8201V32.0402H77.5401V31.2962H78.2601V30.6002H78.9801V29.8802H79.7001V29.1602H80.4201V32.0402H79.7001V32.7602H78.9801V33.4802H78.2601V34.1762H77.5401V34.9202H76.8201V35.6402H76.1001V36.3602H76.8201V37.0802H77.5401V38.5202H78.2601V39.9602H78.9801V41.4002H79.7001V42.8402H80.4201V45.0002Z" fill="#07E8CD"/>
</g>
<g filter="url(#filter5_f_1038_579)">
<path d="M60.4953 42.1202H59.7753V42.8402H59.0553V43.5602H58.3353V44.2802H57.6153V45.0002H54.0153V44.2802H53.2953V43.5602H52.5753V42.8402H51.8553V42.1202H51.1353V32.0402H51.8553V31.3202H52.5753V30.6002H53.2953V29.8802H54.0153V29.1602H57.6153V29.8802H58.3353V30.6002H59.0553V31.3202H59.7753V32.0402H60.4953V42.1202ZM58.3353 41.4002V32.7602H57.6153V32.0402H56.8953V31.3202H54.7353V32.0402H54.0153V32.7602H53.2953V41.4002H54.0153V42.1202H54.7353V42.8402H56.8953V42.1202H57.6153V41.4002H58.3353Z" fill="#07E8CD"/>
</g>
<g filter="url(#filter6_f_1038_579)">
<path d="M40.5707 45.0002H31.2107V43.5602H31.9307V42.1202H32.6507V40.6802H33.3707V39.2402H34.0907V37.8002H34.8107V36.3602H35.5307V34.9202H36.2507V33.4802H36.9707V32.0402H37.6907V31.3202H31.2107V29.1602H40.5707V29.9042L39.8507 29.8802V31.3202H39.1307V32.7602H38.4107V34.2002H37.6907V35.6402H36.9707V37.0802H36.2507V38.5202H35.5307V39.9602H34.8107V41.4002H34.0907V42.8402H40.5707V45.0002Z" fill="#07E8CD"/>
</g>
<g filter="url(#filter7_f_1038_579)">
<path d="M100.345 42.8402H99.6246V43.5602H98.9046V44.2802H98.1846V45.0002H93.1446V44.2802H92.4246V43.5602H91.7046V42.8402H90.9846V29.1602H93.1446V42.1202H93.8646V42.8402H97.4646V42.1202H98.1846V29.1602H100.345V42.8402Z" fill="#009D8A"/>
</g>
<g filter="url(#filter8_f_1038_579)">
<path d="M80.4201 45.0002H78.2601V43.5602H77.5401V42.1202H76.8201V40.6802H76.1001V39.2402H75.3801V37.8002H73.9401V38.5202H73.2201V45.0002H71.0601V29.1602H73.2201V35.6402H73.9401V34.9202H74.6601V34.2002H75.3801V33.4802H76.1001V32.7602H76.8201V32.0402H77.5401V31.2962H78.2601V30.6002H78.9801V29.8802H79.7001V29.1602H80.4201V32.0402H79.7001V32.7602H78.9801V33.4802H78.2601V34.1762H77.5401V34.9202H76.8201V35.6402H76.1001V36.3602H76.8201V37.0802H77.5401V38.5202H78.2601V39.9602H78.9801V41.4002H79.7001V42.8402H80.4201V45.0002Z" fill="#009D8A"/>
</g>
<g filter="url(#filter9_f_1038_579)">
<path d="M60.4953 42.1202H59.7753V42.8402H59.0553V43.5602H58.3353V44.2802H57.6153V45.0002H54.0153V44.2802H53.2953V43.5602H52.5753V42.8402H51.8553V42.1202H51.1353V32.0402H51.8553V31.3202H52.5753V30.6002H53.2953V29.8802H54.0153V29.1602H57.6153V29.8802H58.3353V30.6002H59.0553V31.3202H59.7753V32.0402H60.4953V42.1202ZM58.3353 41.4002V32.7602H57.6153V32.0402H56.8953V31.3202H54.7353V32.0402H54.0153V32.7602H53.2953V41.4002H54.0153V42.1202H54.7353V42.8402H56.8953V42.1202H57.6153V41.4002H58.3353Z" fill="#009D8A"/>
</g>
<g filter="url(#filter10_f_1038_579)">
<path d="M40.5707 45.0002H31.2107V43.5602H31.9307V42.1202H32.6507V40.6802H33.3707V39.2402H34.0907V37.8002H34.8107V36.3602H35.5307V34.9202H36.2507V33.4802H36.9707V32.0402H37.6907V31.3202H31.2107V29.1602H40.5707V29.9042L39.8507 29.8802V31.3202H39.1307V32.7602H38.4107V34.2002H37.6907V35.6402H36.9707V37.0802H36.2507V38.5202H35.5307V39.9602H34.8107V41.4002H34.0907V42.8402H40.5707V45.0002Z" fill="#009D8A"/>
</g>
<g filter="url(#filter11_f_1038_579)">
<path d="M100.345 42.8402H99.6246V43.5602H98.9046V44.2802H98.1846V45.0002H93.1446V44.2802H92.4246V43.5602H91.7046V42.8402H90.9846V29.1602H93.1446V42.1202H93.8646V42.8402H97.4646V42.1202H98.1846V29.1602H100.345V42.8402Z" fill="#00A591"/>
</g>
<g filter="url(#filter12_f_1038_579)">
<path d="M80.4201 45.0002H78.2601V43.5602H77.5401V42.1202H76.8201V40.6802H76.1001V39.2402H75.3801V37.8002H73.9401V38.5202H73.2201V45.0002H71.0601V29.1602H73.2201V35.6402H73.9401V34.9202H74.6601V34.2002H75.3801V33.4802H76.1001V32.7602H76.8201V32.0402H77.5401V31.2962H78.2601V30.6002H78.9801V29.8802H79.7001V29.1602H80.4201V32.0402H79.7001V32.7602H78.9801V33.4802H78.2601V34.1762H77.5401V34.9202H76.8201V35.6402H76.1001V36.3602H76.8201V37.0802H77.5401V38.5202H78.2601V39.9602H78.9801V41.4002H79.7001V42.8402H80.4201V45.0002Z" fill="#00A591"/>
</g>
<g filter="url(#filter13_f_1038_579)">
<path d="M60.4953 42.1202H59.7753V42.8402H59.0553V43.5602H58.3353V44.2802H57.6153V45.0002H54.0153V44.2802H53.2953V43.5602H52.5753V42.8402H51.8553V42.1202H51.1353V32.0402H51.8553V31.3202H52.5753V30.6002H53.2953V29.8802H54.0153V29.1602H57.6153V29.8802H58.3353V30.6002H59.0553V31.3202H59.7753V32.0402H60.4953V42.1202ZM58.3353 41.4002V32.7602H57.6153V32.0402H56.8953V31.3202H54.7353V32.0402H54.0153V32.7602H53.2953V41.4002H54.0153V42.1202H54.7353V42.8402H56.8953V42.1202H57.6153V41.4002H58.3353Z" fill="#00A591"/>
</g>
<g filter="url(#filter14_f_1038_579)">
<path d="M40.5707 45.0002H31.2107V43.5602H31.9307V42.1202H32.6507V40.6802H33.3707V39.2402H34.0907V37.8002H34.8107V36.3602H35.5307V34.9202H36.2507V33.4802H36.9707V32.0402H37.6907V31.3202H31.2107V29.1602H40.5707V29.9042L39.8507 29.8802V31.3202H39.1307V32.7602H38.4107V34.2002H37.6907V35.6402H36.9707V37.0802H36.2507V38.5202H35.5307V39.9602H34.8107V41.4002H34.0907V42.8402H40.5707V45.0002Z" fill="#00A591"/>
</g>
<path d="M100.345 42.8402H99.6246V43.5602H98.9046V44.2802H98.1846V45.0002H93.1446V44.2802H92.4246V43.5602H91.7046V42.8402H90.9846V29.1602H93.1446V42.1202H93.8646V42.8402H97.4646V42.1202H98.1846V29.1602H100.345V42.8402Z" fill="#E7F8F6"/>
<path d="M80.4201 45.0002H78.2601V43.5602H77.5401V42.1202H76.8201V40.6802H76.1001V39.2402H75.3801V37.8002H73.9401V38.5202H73.2201V45.0002H71.0601V29.1602H73.2201V35.6402H73.9401V34.9202H74.6601V34.2002H75.3801V33.4802H76.1001V32.7602H76.8201V32.0402H77.5401V31.2962H78.2601V30.6002H78.9801V29.8802H79.7001V29.1602H80.4201V32.0402H79.7001V32.7602H78.9801V33.4802H78.2601V34.1762H77.5401V34.9202H76.8201V35.6402H76.1001V36.3602H76.8201V37.0802H77.5401V38.5202H78.2601V39.9602H78.9801V41.4002H79.7001V42.8402H80.4201V45.0002Z" fill="#E7F8F6"/>
<path d="M60.4953 42.1202H59.7753V42.8402H59.0553V43.5602H58.3353V44.2802H57.6153V45.0002H54.0153V44.2802H53.2953V43.5602H52.5753V42.8402H51.8553V42.1202H51.1353V32.0402H51.8553V31.3202H52.5753V30.6002H53.2953V29.8802H54.0153V29.1602H57.6153V29.8802H58.3353V30.6002H59.0553V31.3202H59.7753V32.0402H60.4953V42.1202ZM58.3353 41.4002V32.7602H57.6153V32.0402H56.8953V31.3202H54.7353V32.0402H54.0153V32.7602H53.2953V41.4002H54.0153V42.1202H54.7353V42.8402H56.8953V42.1202H57.6153V41.4002H58.3353Z" fill="#E7F8F6"/>
<path d="M40.5707 45.0002H31.2107V43.5602H31.9307V42.1202H32.6507V40.6802H33.3707V39.2402H34.0907V37.8002H34.8107V36.3602H35.5307V34.9202H36.2507V33.4802H36.9707V32.0402H37.6907V31.3202H31.2107V29.1602H40.5707V29.9042L39.8507 29.8802V31.3202H39.1307V32.7602H38.4107V34.2002H37.6907V35.6402H36.9707V37.0802H36.2507V38.5202H35.5307V39.9602H34.8107V41.4002H34.0907V42.8402H40.5707V45.0002Z" fill="#E7F8F6"/>
<path d="M91.2852 45V45.0303H91.3145V45.0596H91.3447V45.0898H91.375V45.6602H91.2852V45.1201H91.2549V45.0898H91.1045V45.1201H91.0742V45.6602H90.9844V45.0898H91.0146V45.0596H91.0449V45.0303H91.0742V45H91.2852ZM93.3945 28.9102V41.8701H94.1143V42.5898H97.2148V41.8701H97.9346V28.9102H100.595V43.0898H99.875V43.8096H99.1543V44.5303H98.4346V45.25H92.8945V44.5303H92.1748V43.8096H91.4551V43.0898H90.7344V28.9102H93.3945ZM91.2344 42.5898H91.9551V43.3096H92.6748V44.0303H93.3945V44.75H97.9346V44.0303H98.6543V43.3096H99.375V42.5898H100.095V29.4102H98.4346V42.3701H97.7148V43.0898H93.6143V42.3701H92.8945V29.4102H91.2344V42.5898Z" fill="#E7F8F6"/>
<path d="M73.4697 28.9102V35.3896H73.6904V34.6699H74.4102V33.9502H75.1299V33.2305H75.8496V32.5098H76.5703V31.79H77.29V31.0459H78.0098V30.3496H78.7305V29.6299H79.4502V28.9102H80.6699V32.29H79.9502V33.0098H79.2305V33.7305H78.5098V34.4258H77.79V35.1699H77.0703V35.8896H76.3496V36.1104H77.0703V36.8301H77.79V38.2695H78.5098V39.71H79.2305V41.1504H79.9502V42.5898H80.6699V45.25H78.0098V43.8096H77.29V42.3701H76.5703V40.9297H75.8496V39.4902H75.1299V38.0498H74.1904V38.7695H73.4697V45.25H71.3604V45.2695H71.3301V45.3301H71.2998V45.3604H71.2695V45.3896H71.2998V45.4199H71.3301V45.4512H71.3604V45.4805H71.3896V45.5098H71.4199V45.54H71.4502V45.6602H71.4199V45.6299H71.3896V45.5996H71.3604V45.5713H71.3301V45.54H71.2998V45.5098H71.2695V45.4805H71.2402V45.4502H71.21V45.4199H71.1797V45.3896H71.1504V45.6602H71.0596V45.25H70.8096V28.9102H73.4697ZM71.1504 45.2695H71.1797V45.2998H71.2402V45.25H71.1504V45.2695ZM71.3096 44.75H72.9697V38.2695H73.6904V37.5498H75.6299V38.9902H76.3496V40.4297H77.0703V41.8701H77.79V43.3096H78.5098V44.75H80.1699V43.0898H79.4502V41.6504H78.7305V40.21H78.0098V38.7695H77.29V37.3301H76.5703V36.6104H75.8496V35.3896H76.5703V34.6699H77.29V33.9258H78.0098V33.2305H78.7305V32.5098H79.4502V31.79H80.1699V29.4102H79.9502V30.1299H79.2305V30.8496H78.5098V31.5459H77.79V32.29H77.0703V33.0098H76.3496V33.7305H75.6299V34.4502H74.9102V35.1699H74.1904V35.8896H72.9697V29.4102H71.3096V44.75Z" fill="#E7F8F6"/>
<path d="M51.4053 45V45.0303H51.4355V45.0596H51.4648V45.0898H51.4951V45.1201H51.5254V45.54H51.4951V45.5703H51.4648V45.5996H51.4355V45.6299H51.4053V45.6602H51.2549V45.6299H51.2256V45.5996H51.1953V45.5703H51.165V45.54H51.1357V45.1201H51.165V45.0898H51.1953V45.0596H51.2256V45.0303H51.2549V45H51.4053ZM51.2852 45.0898V45.1201H51.2549V45.1504H51.2256V45.5098H51.2549V45.54H51.2852V45.5703H51.375V45.54H51.4053V45.5098H51.4355V45.1504H51.4053V45.1201H51.375V45.0898H51.2852ZM57.8652 28.9102V29.6299H58.585V30.3496H59.3057V31.0703H60.0254V31.79H60.7451V42.3701H60.0254V43.0898H59.3057V43.8096H58.585V44.5303H57.8652V45.25H53.7656V44.5303H53.0449V43.8096H52.3252V43.0898H51.6055V42.3701H50.8857V31.79H51.6055V31.0703H52.3252V30.3496H53.0449V29.6299H53.7656V28.9102H57.8652ZM54.2656 30.1299H53.5449V30.8496H52.8252V31.5703H52.1055V32.29H51.3857V41.8701H52.1055V42.5898H52.8252V43.3096H53.5449V44.0303H54.2656V44.75H57.3652V44.0303H58.085V43.3096H58.8057V42.5898H59.5254V41.8701H60.2451V32.29H59.5254V31.5703H58.8057V30.8496H58.085V30.1299H57.3652V29.4102H54.2656V30.1299ZM57.1455 31.0703V31.79H57.8652V32.5098H58.585V41.6504H57.8652V42.3701H57.1455V43.0898H54.4854V42.3701H53.7656V41.6504H53.0449V32.5098H53.7656V31.79H54.4854V31.0703H57.1455ZM54.9854 32.29H54.2656V33.0098H53.5449V41.1504H54.2656V41.8701H54.9854V42.5898H56.6455V41.8701H57.3652V41.1504H58.085V33.0098H57.3652V32.29H56.6455V31.5703H54.9854V32.29Z" fill="#E7F8F6"/>
<path d="M40.8203 28.9102V30.1621L40.5625 30.1543L40.1006 30.1377V31.5703H39.3809V33.0098H38.6602V34.4502H37.9404V35.8896H37.2207V37.3301H36.501V38.7695H35.7803V40.21H35.0605V41.6504H34.3408V42.5898H40.8203V45.25H31.3906V45.2695H31.4209V45.3301H31.4502V45.3896H31.4805V45.4502H31.5107V45.5098H31.541V45.5703H31.5703V45.6299L31.6006 45.6289V45.6602H31.2109V45.5703H31.4805V45.54H31.4502V45.4805H31.4209V45.4199H31.3906V45.3604H31.3604V45.2998H31.3311V45.25H30.9609V43.3096H31.6807V41.8701H32.4004V40.4297H33.1211V38.9902H33.8408V37.5498H34.5605V36.1104H35.2803V34.6699H36.001V33.2305H36.7207V31.79H37.4404V31.5703H30.9609V28.9102H40.8203ZM31.4609 31.0703H37.9404V32.29H37.2207V33.7305H36.501V35.1699H35.7803V36.6104H35.0605V38.0498H34.3408V39.4902H33.6211V40.9297H32.9004V42.3701H32.1807V43.8096H31.4609V44.75H40.3203V43.0898H33.8408V41.1504H34.5605V39.71H35.2803V38.2695H36.001V36.8301H36.7207V35.3896H37.4404V33.9502H38.1602V32.5098H38.8809V31.0703H39.6006V29.6211L40.3203 29.6455V29.4102H31.4609V31.0703Z" fill="#E7F8F6"/>
<g filter="url(#filter15_f_1038_579)">
<path d="M132.452 30.8401C132.348 33.0401 131.676 34.8881 130.436 36.3841C129.204 37.8721 127.504 38.9121 125.336 39.5041L124.664 38.1481C126.448 37.6841 127.84 36.9521 128.84 35.9521C129.848 34.9441 130.512 33.6921 130.832 32.1961H126.872C126.512 32.7161 126.12 33.1961 125.696 33.6361C125.272 34.0681 124.748 34.5121 124.124 34.9681L123.2 33.8041C124.064 33.2041 124.784 32.5281 125.36 31.7761C125.944 31.0161 126.416 30.1721 126.776 29.2441L128.192 29.6281C127.968 30.1321 127.776 30.5361 127.616 30.8401H132.452Z" fill="#FF2D78"/>
</g>
<g filter="url(#filter16_f_1038_579)">
<path d="M120.776 30.8636C120.344 29.9996 119.988 29.3596 119.708 28.9436L120.596 28.5596C121.004 29.1916 121.356 29.8276 121.652 30.4676L120.776 30.8636ZM119.276 31.4516C118.932 30.7316 118.58 30.0956 118.22 29.5436L119.108 29.1476C119.548 29.8356 119.9 30.4716 120.164 31.0556L119.276 31.4516ZM112.724 34.5836C112.308 33.0956 111.784 31.7676 111.152 30.5996L112.592 29.9636C112.92 30.5876 113.224 31.2636 113.504 31.9916C113.792 32.7116 114.024 33.4076 114.2 34.0796L112.724 34.5836ZM113.144 38.1596C114.28 37.6636 115.216 37.1116 115.952 36.5036C116.688 35.8876 117.272 35.1716 117.704 34.3556C118.144 33.5396 118.468 32.5636 118.676 31.4276L120.164 31.7276C119.804 33.5836 119.14 35.1396 118.172 36.3956C117.212 37.6516 115.824 38.7036 114.008 39.5516L113.144 38.1596Z" fill="#FF2D78"/>
</g>
<g filter="url(#filter17_f_1038_579)">
<path d="M132.452 30.8401C132.348 33.0401 131.676 34.8881 130.436 36.3841C129.204 37.8721 127.504 38.9121 125.336 39.5041L124.664 38.1481C126.448 37.6841 127.84 36.9521 128.84 35.9521C129.848 34.9441 130.512 33.6921 130.832 32.1961H126.872C126.512 32.7161 126.12 33.1961 125.696 33.6361C125.272 34.0681 124.748 34.5121 124.124 34.9681L123.2 33.8041C124.064 33.2041 124.784 32.5281 125.36 31.7761C125.944 31.0161 126.416 30.1721 126.776 29.2441L128.192 29.6281C127.968 30.1321 127.776 30.5361 127.616 30.8401H132.452Z" fill="#FF2D78"/>
</g>
<g filter="url(#filter18_f_1038_579)">
<path d="M120.776 30.8636C120.344 29.9996 119.988 29.3596 119.708 28.9436L120.596 28.5596C121.004 29.1916 121.356 29.8276 121.652 30.4676L120.776 30.8636ZM119.276 31.4516C118.932 30.7316 118.58 30.0956 118.22 29.5436L119.108 29.1476C119.548 29.8356 119.9 30.4716 120.164 31.0556L119.276 31.4516ZM112.724 34.5836C112.308 33.0956 111.784 31.7676 111.152 30.5996L112.592 29.9636C112.92 30.5876 113.224 31.2636 113.504 31.9916C113.792 32.7116 114.024 33.4076 114.2 34.0796L112.724 34.5836ZM113.144 38.1596C114.28 37.6636 115.216 37.1116 115.952 36.5036C116.688 35.8876 117.272 35.1716 117.704 34.3556C118.144 33.5396 118.468 32.5636 118.676 31.4276L120.164 31.7276C119.804 33.5836 119.14 35.1396 118.172 36.3956C117.212 37.6516 115.824 38.7036 114.008 39.5516L113.144 38.1596Z" fill="#FF2D78"/>
</g>
<g filter="url(#filter19_f_1038_579)">
<path d="M132.452 30.8401C132.348 33.0401 131.676 34.8881 130.436 36.3841C129.204 37.8721 127.504 38.9121 125.336 39.5041L124.664 38.1481C126.448 37.6841 127.84 36.9521 128.84 35.9521C129.848 34.9441 130.512 33.6921 130.832 32.1961H126.872C126.512 32.7161 126.12 33.1961 125.696 33.6361C125.272 34.0681 124.748 34.5121 124.124 34.9681L123.2 33.8041C124.064 33.2041 124.784 32.5281 125.36 31.7761C125.944 31.0161 126.416 30.1721 126.776 29.2441L128.192 29.6281C127.968 30.1321 127.776 30.5361 127.616 30.8401H132.452Z" fill="#FFCCE0"/>
</g>
<g filter="url(#filter20_f_1038_579)">
<path d="M120.776 30.8636C120.344 29.9996 119.988 29.3596 119.708 28.9436L120.596 28.5596C121.004 29.1916 121.356 29.8276 121.652 30.4676L120.776 30.8636ZM119.276 31.4516C118.932 30.7316 118.58 30.0956 118.22 29.5436L119.108 29.1476C119.548 29.8356 119.9 30.4716 120.164 31.0556L119.276 31.4516ZM112.724 34.5836C112.308 33.0956 111.784 31.7676 111.152 30.5996L112.592 29.9636C112.92 30.5876 113.224 31.2636 113.504 31.9916C113.792 32.7116 114.024 33.4076 114.2 34.0796L112.724 34.5836ZM113.144 38.1596C114.28 37.6636 115.216 37.1116 115.952 36.5036C116.688 35.8876 117.272 35.1716 117.704 34.3556C118.144 33.5396 118.468 32.5636 118.676 31.4276L120.164 31.7276C119.804 33.5836 119.14 35.1396 118.172 36.3956C117.212 37.6516 115.824 38.7036 114.008 39.5516L113.144 38.1596Z" fill="#FFCCE0"/>
</g>
<path d="M132.452 30.8401C132.348 33.0401 131.676 34.8881 130.436 36.3841C129.204 37.8721 127.504 38.9121 125.336 39.5041L124.664 38.1481C126.448 37.6841 127.84 36.9521 128.84 35.9521C129.848 34.9441 130.512 33.6921 130.832 32.1961H126.872C126.512 32.7161 126.12 33.1961 125.696 33.6361C125.272 34.0681 124.748 34.5121 124.124 34.9681L123.2 33.8041C124.064 33.2041 124.784 32.5281 125.36 31.7761C125.944 31.0161 126.416 30.1721 126.776 29.2441L128.192 29.6281C127.968 30.1321 127.776 30.5361 127.616 30.8401H132.452Z" fill="white"/>
<path d="M120.776 30.8636C120.344 29.9996 119.988 29.3596 119.708 28.9436L120.596 28.5596C121.004 29.1916 121.356 29.8276 121.652 30.4676L120.776 30.8636ZM119.276 31.4516C118.932 30.7316 118.58 30.0956 118.22 29.5436L119.108 29.1476C119.548 29.8356 119.9 30.4716 120.164 31.0556L119.276 31.4516ZM112.724 34.5836C112.308 33.0956 111.784 31.7676 111.152 30.5996L112.592 29.9636C112.92 30.5876 113.224 31.2636 113.504 31.9916C113.792 32.7116 114.024 33.4076 114.2 34.0796L112.724 34.5836ZM113.144 38.1596C114.28 37.6636 115.216 37.1116 115.952 36.5036C116.688 35.8876 117.272 35.1716 117.704 34.3556C118.144 33.5396 118.468 32.5636 118.676 31.4276L120.164 31.7276C119.804 33.5836 119.14 35.1396 118.172 36.3956C117.212 37.6516 115.824 38.7036 114.008 39.5516L113.144 38.1596Z" fill="white"/>
<defs>
<filter id="filter0_f_1038_579" x="0" y="0" width="163" height="74" filterUnits="userSpaceOnUse" color-interpolation-filters="sRGB">
<feFlood flood-opacity="0" result="BackgroundImageFix"/>
<feBlend mode="normal" in="SourceGraphic" in2="BackgroundImageFix" result="shape"/>
<feGaussianBlur stdDeviation="8" result="effect1_foregroundBlur_1038_579"/>
</filter>
<filter id="filter1_f_1038_579" x="8" y="8" width="147" height="58" filterUnits="userSpaceOnUse" color-interpolation-filters="sRGB">
<feFlood flood-opacity="0" result="BackgroundImageFix"/>
<feBlend mode="normal" in="SourceGraphic" in2="BackgroundImageFix" result="shape"/>
<feGaussianBlur stdDeviation="4" result="effect1_foregroundBlur_1038_579"/>
</filter>
<filter id="filter2_f_1038_579" x="13" y="13" width="137" height="48" filterUnits="userSpaceOnUse" color-interpolation-filters="sRGB">
<feFlood flood-opacity="0" result="BackgroundImageFix"/>
<feBlend mode="normal" in="SourceGraphic" in2="BackgroundImageFix" result="shape"/>
<feGaussianBlur stdDeviation="1.5" result="effect1_foregroundBlur_1038_579"/>
</filter>
<filter id="filter3_f_1038_579" x="74.9846" y="13.1602" width="41.3601" height="47.8398" filterUnits="userSpaceOnUse" color-interpolation-filters="sRGB">
<feFlood flood-opacity="0" result="BackgroundImageFix"/>
<feBlend mode="normal" in="SourceGraphic" in2="BackgroundImageFix" result="shape"/>
<feGaussianBlur stdDeviation="8" result="effect1_foregroundBlur_1038_579"/>
</filter>
<filter id="filter4_f_1038_579" x="55.0601" y="13.1602" width="41.3601" height="47.8398" filterUnits="userSpaceOnUse" color-interpolation-filters="sRGB">
<feFlood flood-opacity="0" result="BackgroundImageFix"/>
<feBlend mode="normal" in="SourceGraphic" in2="BackgroundImageFix" result="shape"/>
<feGaussianBlur stdDeviation="8" result="effect1_foregroundBlur_1038_579"/>
</filter>
<filter id="filter5_f_1038_579" x="35.1353" y="13.1602" width="41.3601" height="47.8398" filterUnits="userSpaceOnUse" color-interpolation-filters="sRGB">
<feFlood flood-opacity="0" result="BackgroundImageFix"/>
<feBlend mode="normal" in="SourceGraphic" in2="BackgroundImageFix" result="shape"/>
<feGaussianBlur stdDeviation="8" result="effect1_foregroundBlur_1038_579"/>
</filter>
<filter id="filter6_f_1038_579" x="15.2107" y="13.1602" width="41.3601" height="47.8398" filterUnits="userSpaceOnUse" color-interpolation-filters="sRGB">
<feFlood flood-opacity="0" result="BackgroundImageFix"/>
<feBlend mode="normal" in="SourceGraphic" in2="BackgroundImageFix" result="shape"/>
<feGaussianBlur stdDeviation="8" result="effect1_foregroundBlur_1038_579"/>
</filter>
<filter id="filter7_f_1038_579" x="82.9846" y="21.1602" width="25.3601" height="31.8398" filterUnits="userSpaceOnUse" color-interpolation-filters="sRGB">
<feFlood flood-opacity="0" result="BackgroundImageFix"/>
<feBlend mode="normal" in="SourceGraphic" in2="BackgroundImageFix" result="shape"/>
<feGaussianBlur stdDeviation="4" result="effect1_foregroundBlur_1038_579"/>
</filter>
<filter id="filter8_f_1038_579" x="63.0601" y="21.1602" width="25.3601" height="31.8398" filterUnits="userSpaceOnUse" color-interpolation-filters="sRGB">
<feFlood flood-opacity="0" result="BackgroundImageFix"/>
<feBlend mode="normal" in="SourceGraphic" in2="BackgroundImageFix" result="shape"/>
<feGaussianBlur stdDeviation="4" result="effect1_foregroundBlur_1038_579"/>
</filter>
<filter id="filter9_f_1038_579" x="43.1353" y="21.1602" width="25.3601" height="31.8398" filterUnits="userSpaceOnUse" color-interpolation-filters="sRGB">
<feFlood flood-opacity="0" result="BackgroundImageFix"/>
<feBlend mode="normal" in="SourceGraphic" in2="BackgroundImageFix" result="shape"/>
<feGaussianBlur stdDeviation="4" result="effect1_foregroundBlur_1038_579"/>
</filter>
<filter id="filter10_f_1038_579" x="23.2107" y="21.1602" width="25.3601" height="31.8398" filterUnits="userSpaceOnUse" color-interpolation-filters="sRGB">
<feFlood flood-opacity="0" result="BackgroundImageFix"/>
<feBlend mode="normal" in="SourceGraphic" in2="BackgroundImageFix" result="shape"/>
<feGaussianBlur stdDeviation="4" result="effect1_foregroundBlur_1038_579"/>
</filter>
<filter id="filter11_f_1038_579" x="87.9846" y="26.1602" width="15.3601" height="21.8398" filterUnits="userSpaceOnUse" color-interpolation-filters="sRGB">
<feFlood flood-opacity="0" result="BackgroundImageFix"/>
<feBlend mode="normal" in="SourceGraphic" in2="BackgroundImageFix" result="shape"/>
<feGaussianBlur stdDeviation="1.5" result="effect1_foregroundBlur_1038_579"/>
</filter>
<filter id="filter12_f_1038_579" x="68.0601" y="26.1602" width="15.3601" height="21.8398" filterUnits="userSpaceOnUse" color-interpolation-filters="sRGB">
<feFlood flood-opacity="0" result="BackgroundImageFix"/>
<feBlend mode="normal" in="SourceGraphic" in2="BackgroundImageFix" result="shape"/>
<feGaussianBlur stdDeviation="1.5" result="effect1_foregroundBlur_1038_579"/>
</filter>
<filter id="filter13_f_1038_579" x="48.1353" y="26.1602" width="15.3601" height="21.8398" filterUnits="userSpaceOnUse" color-interpolation-filters="sRGB">
<feFlood flood-opacity="0" result="BackgroundImageFix"/>
<feBlend mode="normal" in="SourceGraphic" in2="BackgroundImageFix" result="shape"/>
<feGaussianBlur stdDeviation="1.5" result="effect1_foregroundBlur_1038_579"/>
</filter>
<filter id="filter14_f_1038_579" x="28.2107" y="26.1602" width="15.3601" height="21.8398" filterUnits="userSpaceOnUse" color-interpolation-filters="sRGB">
<feFlood flood-opacity="0" result="BackgroundImageFix"/>
<feBlend mode="normal" in="SourceGraphic" in2="BackgroundImageFix" result="shape"/>
<feGaussianBlur stdDeviation="1.5" result="effect1_foregroundBlur_1038_579"/>
</filter>
<filter id="filter15_f_1038_579" x="107.2" y="13.2441" width="41.252" height="42.2598" filterUnits="userSpaceOnUse" color-interpolation-filters="sRGB">
<feFlood flood-opacity="0" result="BackgroundImageFix"/>
<feBlend mode="normal" in="SourceGraphic" in2="BackgroundImageFix" result="shape"/>
<feGaussianBlur stdDeviation="8" result="effect1_foregroundBlur_1038_579"/>
</filter>
<filter id="filter16_f_1038_579" x="95.1521" y="12.5596" width="42.5" height="42.9922" filterUnits="userSpaceOnUse" color-interpolation-filters="sRGB">
<feFlood flood-opacity="0" result="BackgroundImageFix"/>
<feBlend mode="normal" in="SourceGraphic" in2="BackgroundImageFix" result="shape"/>
<feGaussianBlur stdDeviation="8" result="effect1_foregroundBlur_1038_579"/>
</filter>
<filter id="filter17_f_1038_579" x="115.2" y="21.2441" width="25.252" height="26.2598" filterUnits="userSpaceOnUse" color-interpolation-filters="sRGB">
<feFlood flood-opacity="0" result="BackgroundImageFix"/>
<feBlend mode="normal" in="SourceGraphic" in2="BackgroundImageFix" result="shape"/>
<feGaussianBlur stdDeviation="4" result="effect1_foregroundBlur_1038_579"/>
</filter>
<filter id="filter18_f_1038_579" x="103.152" y="20.5596" width="26.5" height="26.9922" filterUnits="userSpaceOnUse" color-interpolation-filters="sRGB">
<feFlood flood-opacity="0" result="BackgroundImageFix"/>
<feBlend mode="normal" in="SourceGraphic" in2="BackgroundImageFix" result="shape"/>
<feGaussianBlur stdDeviation="4" result="effect1_foregroundBlur_1038_579"/>
</filter>
<filter id="filter19_f_1038_579" x="120.2" y="26.2441" width="15.252" height="16.2598" filterUnits="userSpaceOnUse" color-interpolation-filters="sRGB">
<feFlood flood-opacity="0" result="BackgroundImageFix"/>
<feBlend mode="normal" in="SourceGraphic" in2="BackgroundImageFix" result="shape"/>
<feGaussianBlur stdDeviation="1.5" result="effect1_foregroundBlur_1038_579"/>
</filter>
<filter id="filter20_f_1038_579" x="108.152" y="25.5596" width="16.5" height="16.9922" filterUnits="userSpaceOnUse" color-interpolation-filters="sRGB">
<feFlood flood-opacity="0" result="BackgroundImageFix"/>
<feBlend mode="normal" in="SourceGraphic" in2="BackgroundImageFix" result="shape"/>
<feGaussianBlur stdDeviation="1.5" result="effect1_foregroundBlur_1038_579"/>
</filter>
</defs>
</svg>
